<svg width="41" height="39" viewBox="0 0 41 39" fill="none" xmlns="http://www.w3.org/2000/svg">
<path d="M2.45359 1.94578H38.5464V37.0542H2.45359V1.94578ZM0.8125 38.6953H40.1875V0.304688H0.8125V38.6953ZM27.3583 16.0547C26.0617 16.0547 25.6187 16.7114 25.6187 17.2528C25.6187 17.8434 25.9141 18.2541 27.6536 19.1555C30.2298 20.4028 31.0286 21.5995 31.0286 23.3559C31.0286 25.9814 29.0275 27.3919 26.3205 27.3919C25.1587 27.4349 24.004 27.1936 22.9567 26.6887C22.8414 26.6395 22.8259 26.558 22.8259 26.4258V24.0112C22.8259 23.8467 22.9075 23.7975 23.0228 23.8805C24.0063 24.5129 25.1512 24.8488 26.3205 24.848C27.617 24.848 28.1584 24.3066 28.1584 23.5683C28.1584 22.9777 27.7816 22.4531 26.1236 21.5995C23.7934 20.4844 22.8259 19.3495 22.8259 17.4652C22.8259 15.3488 24.4825 13.5938 27.3541 13.5938C28.3536 13.5508 29.3517 13.7071 30.2903 14.0536C30.3444 14.0887 30.3881 14.1375 30.417 14.1951C30.4459 14.2527 30.459 14.3169 30.4548 14.3813V16.6313C30.4548 16.762 30.3733 16.845 30.2087 16.7958C29.3413 16.2964 28.3548 16.0413 27.3541 16.0575L27.3583 16.0547ZM13.248 18.0066C13.6248 18.0389 13.9202 18.0389 14.5769 18.0389C16.4964 18.0389 18.3006 17.3667 18.3006 14.7581C18.3006 12.6741 17.0041 11.625 14.823 11.625C14.1663 11.625 13.5433 11.6573 13.248 11.6742V18.0066ZM10.3272 9.28781C10.3272 9.1725 10.5564 9.09094 10.6886 9.09094C12.0988 9.03331 13.51 9.00612 14.9214 9.00937C19.4664 9.00937 21.2383 11.5027 21.2383 14.6864C21.2383 18.8531 18.2191 20.6419 14.5122 20.6419C13.8892 20.6419 13.6755 20.6095 13.2325 20.6095V26.9095C13.2325 27.0403 13.1833 27.1064 13.0356 27.1064H10.5255C10.3947 27.1064 10.3286 27.0572 10.3286 26.9095V9.29484L10.3272 9.28781Z" fill="#31C5F0"/>
</svg>
